# AST/ASF file generated using VICON BodyLanguage
# -----------------------------------------------
:version 1.10
:name VICON
:units
  mass 1.0
  length 0.45
  angle deg
:documentation
   .ast/.asf automatically generated from VICON data using
   VICON BodyBuilder and BodyLanguage model FoxedUp or BRILLIANT.MOD
:root
   order TX TY TZ RX RY RZ
   axis XYZ
   position 0 0 0  
   orientation 0 0 0 
:bonedata
  begin
     id 1 
     name lhipjoint
     direction 0.645422 -0.672597 0.361999 
     length 2.39934 
     axis 0 0 0  XYZ
  end
  begin
     id 2 
     name lfemur
     direction 0.34202 -0.939693 0  
     length 6.58112  
     axis 0 0 20  XYZ
    dof rx ry rz
    limits (-160.0 20.0)
           (-70.0 70.0)
           (-60.0 70.0)
  end
  begin
     id 3 
     name ltibia
     direction 0.34202 -0.939693 0   
     length 7.02673   
     axis 0 0 20   XYZ
    dof rx
    limits (-10.0 170.0)
  end
  begin
     id 4 
     name lfoot
     direction 0.0835106 -0.229444 0.969733   
     length 2.08772   
     axis -90 7.62852e-016 20   XYZ
    dof rx rz
    limits (-45.0 90.0)
           (-70.0 20.0)
  end
  begin
     id 5 
     name ltoes
     direction 1.5358e-011 -4.21925e-011 1   
     length 1.04844   
     axis -90 7.62852e-016 20   XYZ
    dof rx
    limits (-90.0 20.0)
  end
  begin
     id 6 
     name rhipjoint
     direction -0.644959 -0.672941 0.362185   
     length 2.39812  
     axis 0 0 0  XYZ 
  end
  begin
     id 7 
     name rfemur
     direction -0.34202 -0.939693 0   
     length 6.67015   
     axis 0 0 -20   XYZ
    dof rx ry rz
    limits (-160.0 20.0)
           (-70.0 70.0)
           (-70.0 60.0)
  end
  begin
     id 8 
     name rtibia
     direction -0.34202 -0.939693 0   
     length 7.35735   
     axis 0 0 -20   XYZ
    dof rx
    limits (-10.0 170.0)
 end
 begin
     id 9 
     name rfoot
     direction -0.0670769 -0.184292 0.98058   
     length 2.25469  
     axis -90 -7.62852e-016 -20   XYZ
    dof rx rz
    limits (-45.0 90.0)
           (-20.0 70.0)
  end
  begin
     id 10 
     name rtoes
     direction -1.53575e-011 -4.21908e-011 1   
     length 1.13399   
     axis -90 -7.62852e-016 -20   XYZ
    dof rx
    limits (-90.0 20.0)
  end
  begin
     id 11 
     name lowerback
     direction -0.0188328 0.993434 -0.112847   
     length 2.27656   
     axis 0 0 0   XYZ
    dof rx ry rz
    limits (-20.0 45.0)
           (-30.0 30.0)
           (-30.0 30.0)
  end
  begin
     id 12 
     name upperback
     direction 0.00983139 0.998968 -0.04435   
     length 2.28631   
     axis 0 0 0   XYZ
    dof rx ry rz
    limits (-20.0 45.0)
           (-30.0 30.0)
           (-30.0 30.0)
  end
  begin
     id 13 
     name thorax
     direction 0.0177718 0.999807 0.00833073   
     length 2.30999   
     axis 0 0 0   XYZ
    dof rx ry rz
    limits (-20.0 45.0)
           (-30.0 30.0)
           (-30.0 30.0)
  end
  begin
     id 14 
     name lowerneck
     direction -0.0835025 0.993181 0.0813558   
     length 1.39447   
     axis 0 0 0   XYZ
    dof rx ry rz
    limits (-20.0 45.0)
           (-30.0 30.0)
           (-30.0 30.0)
  end
  begin
     id 15 
     name upperneck
     direction 0.210059 0.976535 0.0474817   
     length 1.39882   
     axis 0 0 0   XYZ
    dof rx ry rz
    limits (-20.0 45.0)
           (-30.0 30.0)
           (-30.0 30.0)
  end
  begin
     id 16
     name head
     direction 0.0780891 0.996944 -0.00207154  
     length 1.41828  
     axis 0 0 0   XYZ
    dof rx ry rz
    limits (-20.0 45.0)
           (-30.0 30.0)
           (-30.0 30.0)
  end
  begin
     id 17 
     name lclavicle
     direction 0.982414 0.166355 -0.0847829  
     length 3.57922  
     axis 0 0 0   XYZ
    dof ry rz
    limits (-20.0 10.0)
           (0.0 20.0)
  end
  begin
     id 18 
     name lhumerus
     direction 1 -4.48975e-011 5.47647e-028   
     length 4.76405   
     axis -180 -30 -90   XYZ
    dof rx ry rz
    limits (-60.0 90.0)
           (-90.0 90.0)
           (-90.0 90.0)
  end
  begin
     id 19
     name lradius
     direction 1 -4.48949e-011 -8.32142e-027   
     length 3.13759   
     axis -180 -30 -90   XYZ
    dof rx
    limits (-10.0 170.0)
  end
  begin
     id 20
     name lwrist
     direction 1 -4.48978e-011 -1.32705e-026   
     length 1.56879   
     axis 9.60836e-015 90 90   XYZ
    dof ry
    limits (-180.0 0.0)
 end
  begin
     id 21 
     name lhand
     direction 1 -4.48975e-011 -2.65409e-026   
     length 0.732262   
     axis 1.69354e-014 90 90   XYZ
    dof rx rz
    limits (-90.0 90.0)
           (-45.0 45.0)
  end
  begin
     id 22 
     name lfingers
     direction 1 -4.48923e-011 -5.30819e-026   
     length 0.590368   
     axis 3.38708e-014 90 90   XYZ
    dof rx
    limits (0.0 90.0)
  end
  begin
     id 23
     name lthumb
     direction 0.707107 -6.34914e-011 0.707107   
     length 0.847654   
     axis -90 45 2.85299e-015   XYZ
    dof rx rz
    limits (-45.0 45.0)
           (-45.0 45.0)
  end
  begin
     id 24 
     name rclavicle
     direction -0.963658 0.245183 -0.106063   
     length 3.43472  
     axis 0 0 0   XYZ 
    dof ry rz
    limits (-10.0 20.0)
           (-20.0 0.0)
  end
  begin
     id 25 
     name rhumerus
     direction -1 -4.48963e-011 -1.64784e-027  
     length 5.10161   
     axis -180 30 90   XYZ
    dof rx ry rz
    limits (-90.0 60.0)
           (-90.0 90.0)
           (-90.0 90.0)
  end
  begin
     id 26 
     name rradius
     direction -1 -4.48969e-011 -2.87943e-027   
     length 3.23267   
     axis -180 30 90   XYZ
    dof rx
    limits (-10.0 170.0)
  end
  begin
     id 27 
     name rwrist
     direction -1 -4.48982e-011 -1.32705e-026   
     length 1.61633   
     axis 9.60836e-015 -90 -90   XYZ
    dof ry
    limits (-180.0 0.0)
  end
  begin
     id 28
     name rhand
     direction -1 -4.48963e-011 -2.65409e-026   
     length 0.702   
     axis 1.69354e-014 -90 -90   XYZ
    dof rx rz
    limits (-90.0 90.0)
           (-45.0 45.0)
  end
  begin
     id 29
     name rfingers
     direction -1 -4.48934e-011 -5.30819e-026   
     length 0.565971   
     axis 3.38708e-014 -90 -90   XYZ
    dof rx
    limits (0.0 90.0)
  end
  begin
     id 30
     name rthumb
     direction -0.707107 -6.34908e-011 0.707107   
     length 0.812624   
     axis -90 -45 -2.85299e-015   XYZ
    dof rx rz
    limits (-45.0 45.0)
           (-45.0 45.0)
  end
:hierarchy
  begin
    root lhipjoint rhipjoint lowerback
    lhipjoint lfemur
    lfemur ltibia
    ltibia lfoot
    lfoot ltoes
    rhipjoint rfemur
    rfemur rtibia
    rtibia rfoot
    rfoot rtoes
    lowerback upperback
    upperback thorax
    thorax lowerneck lclavicle rclavicle
    lowerneck upperneck
    upperneck head
    lclavicle lhumerus
    lhumerus lradius
    lradius lwrist
    lwrist lhand lthumb
    lhand lfingers
    rclavicle rhumerus
    rhumerus rradius
    rradius rwrist
    rwrist rhand rthumb
    rhand rfingers
  end

#!OML:ASF \\sashay\E\basketball\basketball\Project 1\Capture day 1\Session 1\Subject.ASF
:FULLY-SPECIFIED
:DEGREES
97
root -11.6346 13.174 2.32029 -350.975 64.4084 -374.552
lowerback 27.1015 2.15364 1.29029
upperback 12.7981 4.04912 4.66906
thorax -0.969673 2.20446 3.25048
lowerneck 0.107641 -6.96872 -10.2989
upperneck -23.8139 -4.6822 27.6364
head -5.76297 -3.40091 11.4969
rclavicle -1.66979e-014 5.725e-014
rhumerus 4.91653 -40.3105 -58.2542
rradius 62.4902
rwrist -43.3121
rhand 0.321804 21.6728
rfingers 7.12502
rthumb 25.8986 -6.58334
lclavicle -1.66979e-014 5.725e-014
lhumerus -67.5005 2.03243 76.0632
lradius 20.3745
lwrist -3.52617
lhand -22.4051 39.6338
lfingers 7.12502
lthumb 4.01754 69.5756
rfemur 12.7995 -2.02611 20.376
rtibia 30.1157
rfoot 2.35987 23.0282
rtoes -42.1871
lfemur -75.9181 2.90364 -44.6889
ltibia 80.9178
lfoot -9.51958 -6.89953
ltoes -17.2354
98
root -11.2095 13.1364 2.70301 -352.718 64.4301 -376.654
lowerback 26.6676 2.05957 1.2347
upperback 12.9059 3.87655 4.2393
thorax -0.612963 2.12994 2.88071
lowerneck -0.218635 -6.60356 -9.58769
upperneck -23.2266 -4.18515 27.5024
head -5.66981 -3.15314 11.2529
rclavicle 5.1684e-014 4.57205e-014
rhumerus 1.4596 -41.1945 -58.8791
rradius 66.0731
rwrist -48.5305
rhand 0.793839 20.5874
rfingers 7.12502
rthumb 26.3505 -7.60188
lclavicle 5.1684e-014 4.57205e-014
lhumerus -68.7318 4.84541 74.1629
lradius 19.2783
lwrist -2.84631
lhand -21.8897 39.7902
lfingers 7.12502
lthumb 4.51529 69.7221
rfemur 15.9697 0.16258 22.5664
rtibia 26.9305
rfoot 6.88976 19.1405
rtoes -38.9068
lfemur -76.5955 4.21731 -46.3876
ltibia 76.6941
lfoot -8.17457 -9.15829
ltoes -13.6413
99
root -10.7772 13.1043 3.06653 -355.177 64.2945 -379.473
lowerback 26.3288 1.83026 1.79751
upperback 13.0407 3.67194 3.68748
thorax -0.226618 2.07348 2.03445
lowerneck -0.85746 -6.11879 -9.08617
upperneck -22.459 -3.52992 27.4738
head -5.476 -2.77968 11.0652
rclavicle 2.74323e-014 1.35174e-014
rhumerus -1.48824 -42.2759 -60.2491
rradius 69.4086
rwrist -52.0995
rhand 1.23027 20.098
rfingers 7.12502
rthumb 26.7682 -8.02807
lclavicle 2.74323e-014 1.35174e-014
lhumerus -69.7801 7.86759 71.5846
lradius 18.1067
lwrist -2.98149
lhand -20.9612 39.7372
lfingers 7.12502
lthumb 5.41178 69.6481
rfemur 18.3943 0.939662 24.4441
rtibia 25.5278
rfoot 9.55262 13.5563
rtoes -34.794
lfemur -76.9702 5.4564 -47.4777
ltibia 72.8413
lfoot -6.91778 -11.4762
ltoes -10.4904
100
root -10.3418 13.0653 3.40794 -357.849 63.9083 -382.542
lowerback 26.0537 1.65396 2.12095
upperback 13.1448 3.50197 3.57793
thorax 0.0486426 2.00858 1.79108
lowerneck -0.778276 -5.92755 -8.63887
upperneck -22.8424 -3.11745 27.5288
head -5.71273 -2.62958 11.0466
rclavicle 6.37602e-014 8.09551e-014
rhumerus -3.68195 -42.6706 -61.3357
rradius 72.3307
rwrist -54.2587
rhand 2.04698 20.107
rfingers 7.12502
rthumb 27.5495 -7.89702
lclavicle 6.37602e-014 8.09551e-014
lhumerus -71.1443 11.7993 68.8156
lradius 16.8501
lwrist -4.13142
lhand -20.3298 39.5083
lfingers 7.12502
lthumb 6.02146 69.4027
rfemur 19.8889 0.285405 25.6494
rtibia 26.1563
rfoot 8.36154 9.14307
rtoes -40.2125
lfemur -77.3027 6.67775 -48.2358
ltibia 69.6135
lfoot -5.91875 -12.4581
ltoes -0.500758
101
root -9.91497 13.0413 3.72485 -359.751 63.619 -385.615
lowerback 25.0902 1.37886 2.49171
upperback 13.0268 3.17067 3.56022
thorax 0.396028 1.85479 1.6731
lowerneck -1.47806 -5.38533 -8.31791
upperneck -21.9475 -2.61359 26.6739
head -5.45679 -2.26199 10.5593
rclavicle 2.64384e-014 -4.06515e-014
rhumerus -5.34773 -42.3571 -62.2708
rradius 74.9598
rwrist -55.3683
rhand 2.34467 20.3333
rfingers 7.12502
rthumb 27.8342 -7.62496
lclavicle 2.64384e-014 -4.06515e-014
lhumerus -72.525 15.5506 66.5714
lradius 15.7374
lwrist -4.97888
lhand -19.8614 39.5567
lfingers 7.12502
lthumb 6.47365 69.4378
rfemur 19.5255 -1.57819 26.2647
rtibia 28.5675
rfoot 7.81475 4.55548
rtoes -42.0026
lfemur -78.2725 7.20183 -48.6886
ltibia 67.7232
lfoot -5.64939 -11.3689
ltoes 8.36525
102
root -9.47632 13.0041 4.02688 -361.913 63.018 -388.562
lowerback 24.4563 1.03795 2.98634
upperback 12.9702 2.7931 3.54966
thorax 0.664006 1.68655 1.48938
lowerneck -1.75014 -5.01337 -8.38193
upperneck -21.758 -2.11518 26.5814
head -5.44885 -1.97321 10.5194
rclavicle -2.78299e-015 -2.5842e-015
rhumerus -6.80536 -41.4347 -62.8746
rradius 77.4115
rwrist -55.6934
rhand 1.75637 20.6626
rfingers 7.12502
rthumb 27.2716 -7.3854
lclavicle -2.78299e-015 -2.5842e-015
lhumerus -74.0223 19.5982 63.781
lradius 14.5223
lwrist -6.69766
lhand -19.0443 39.7315
lfingers 7.12502
lthumb 7.26236 69.5869
rfemur 18.7684 -3.93586 26.1785
rtibia 32.3665
rfoot 7.31889 1.52461
rtoes -41.6125
lfemur -78.4063 7.69683 -48.4564
ltibia 67.4423
lfoot -7.95606 -5.71225
ltoes 14.5306
103
root -9.03453 12.9698 4.31734 -364.164 62.2463 -391.149
lowerback 24.298 0.654196 3.58042
upperback 13.0037 2.40369 3.4176
thorax 0.813086 1.52606 1.10702
lowerneck -1.91461 -4.72772 -8.05727
upperneck -21.7702 -1.65367 26.6321
head -5.52376 -1.75855 10.4775
rclavicle -4.77083e-015 -1.66979e-014
rhumerus -8.08859 -40.4103 -63.3667
rradius 79.5675
rwrist -55.1927
rhand 0.706569 21.2297
rfingers 7.12502
rthumb 26.267 -6.97209
lclavicle -4.77083e-015 -1.66979e-014
lhumerus -75.9726 24.1278 59.0572
lradius 13.1192
lwrist -10.6065
lhand -18.0645 39.5759
lfingers 7.12502
lthumb 8.20813 69.3964
rfemur 17.7077 -6.26337 25.6432
rtibia 37.3616
rfoot 7.33975 -0.606869
rtoes -41.5953
lfemur -77.6717 8.37082 -47.9942
ltibia 68.769
lfoot -11.0336 2.15881
ltoes 17.1758
